<svg
  width="25.135401mm"
  height="28.974024mm"
  viewBox="0 0 25.135401 28.974024"
  xmlns="http://www.w3.org/2000/svg">
  <g transform="matrix(0.26458333,0,0,0.26458333,12.56769,21.56349)">
    <!-- Hat cone outline -->
    <path
      d="M 0,-80 46,10 C 32.882716,36.684932 29.734639,23 0,23 -29.734639,23 -32.882716,36.684933 -46,10 Z"
      fill="none"
      stroke="#1a2238"
      stroke-width="3"
      stroke-linejoin="round" />
    <!-- Hat cone fill -->
    <path
      d="m 0,-72 34,66 a 40,40 0 0 0 -68,0 z"
      fill="#1a2238" />
    <!-- Stars -->
    <path
      d="m 2.8546621,-57.688297 1.138189,2.726412 3.0351704,0.389488 -2.2763778,1.947437 0.7587926,3.1159 -2.6557742,-1.55795 -2.65577381,1.55795 0.7587924,-3.1159 -2.27637769,-1.947437 3.0351702,-0.389488 z"
      fill="#ecc13f" />
    <path
      d="m -9.7121645,-43.056017 1.1381889,2.726412 3.0351704,0.389488 -2.2763778,1.947437 0.7587926,3.1159 -2.6557741,-1.55795 -2.6557735,1.55795 0.758792,-3.1159 -2.276378,-1.947437 3.035171,-0.389488 z"
      fill="#ecc13f" />
    <path
      d="m 9.873953,-37.583692 1.138188,2.726412 3.035171,0.389488 -2.276378,1.947437 0.758793,3.1159 -2.655774,-1.55795 -2.6557737,1.55795 0.7587917,-3.1159 -2.2763773,-1.947437 3.0351703,-0.389488 z"
      fill="#ecc13f" />
    <!-- Brim -->
    <rect x="-36.176777" y="-5.6672621" width="72" height="18" rx="9" fill="#1a2238" />
    <!-- Eyes -->
    <circle cx="-16.176777" cy="3.3327382" r="4" fill="#ecc13f" />
    <circle cx="15.823223" cy="3.3327382" r="4" fill="#ecc13f" />
  </g>
</svg>
